<mxfile host="app.diagrams.net" modified="2024-05-10T11:30:06.553Z" agent="Mozilla/5.0 (Windows NT 10.0; Win64; x64) AppleWebKit/537.36 (KHTML, like Gecko) Chrome/124.0.0.0 Safari/537.36" etag="jvft6ykojdMyCaGpHKIm" version="24.3.1" type="github">
  <diagram id="R2lEEEUBdFMjLlhIrx00" name="Page-1">
    <mxGraphModel dx="1730" dy="468" grid="1" gridSize="10" guides="1" tooltips="1" connect="1" arrows="1" fold="1" page="1" pageScale="1" pageWidth="850" pageHeight="1100" math="0" shadow="0" extFonts="Permanent Marker^https://fonts.googleapis.com/css?family=Permanent+Marker">
      <root>
        <mxCell id="0" />
        <mxCell id="1" parent="0" />
        <mxCell id="NerPfp470zUfesfiXMK2-1" value="+-----------------+        +------------------+        +---------------+        +-----------------+&#xa;  |    Gymnasium    |        |      Member      |        |    Session    |        |      Coach      |&#xa;  +-----------------+        +------------------+        +---------------+        +-----------------+&#xa;  | Name (PK)       |        | Unique Identifier|        | Session ID(PK)|        | Coach ID (PK)  |&#xa;  | Address         |        | Last Name        |        | Type of Sport |        | Last Name       |&#xa;  | Telephone Number|        | First Name       |        | Schedule      |        | First Name      |&#xa;  |                 |        | Address          |        | Gymnasium Name|        | Age             |&#xa;  |                 |        | Date of Birth    |        +---------------+        | Specialty       |&#xa;  |                 |        | Gender           |                               | Gymnasium Name  |&#xa;  +-----------------+        +------------------+                               +-----------------+&#xa;         |                               |                                               |&#xa;         |                               |                                               |&#xa;    +----+----+                    +-----+------+                                 +--------+-------+&#xa;    |          |                    |            |                                 |                |&#xa;    | Register |                    | Attend     |                                 | Lead           |&#xa;    |          |                    |            |                                 |                |&#xa;    +----------+                    +------------+                                 +----------------+" style="text;whiteSpace=wrap;" vertex="1" parent="1">
          <mxGeometry x="-320" y="70" width="1440" height="430" as="geometry" />
        </mxCell>
      </root>
    </mxGraphModel>
  </diagram>
</mxfile>
